<?xml version='1.0' encoding='UTF-8' standalone='no'?>
<svg xmlns="http://www.w3.org/2000/svg" baseProfile="tiny" width="296.926mm" version="1.2" viewBox="0 0 3507 2480" height="209.973mm" xmlns:xlink="http://www.w3.org/1999/xlink" xmlns:inkscape="http://www.inkscape.org/namespaces/inkscape">
 <defs/>
 <g fill-rule="evenodd" stroke-linejoin="bevel" inkscape:label="Page" stroke="black" inkscape:groupmode="layer" stroke-linecap="square" fill="none" stroke-width="1" id="Page">
  <g stroke-linejoin="bevel" font-weight="400" font-style="normal" stroke="#000000" font-size="54.1667" stroke-opacity="1" font-family=".AppleSystemUIFont" stroke-linecap="square" fill="none" transform="matrix(1,0,0,1,0,0)" stroke-width="1"/>
  <g stroke-linejoin="bevel" font-weight="400" font-style="normal" stroke="#000000" font-size="54.1667" stroke-opacity="1" font-family=".AppleSystemUIFont" stroke-linecap="square" fill="none" transform="matrix(1,0,0,1,0,0)" stroke-width="1"/>
  <g stroke-linejoin="bevel" font-weight="400" font-style="normal" stroke="#000000" font-size="54.1667" stroke-opacity="1" font-family=".AppleSystemUIFont" stroke-linecap="square" fill="none" transform="matrix(11.8081,0,0,11.8081,0,0)" stroke-width="1"/>
  <g stroke-linejoin="bevel" font-weight="400" font-style="normal" stroke="#000000" font-size="54.1667" stroke-opacity="1" font-family=".AppleSystemUIFont" stroke-linecap="square" fill="none" transform="matrix(0.999751,0,0,0.999751,0,0)" stroke-width="1"/>
  <g font-weight="400" font-style="normal" stroke="none" font-size="54.1667" font-family=".AppleSystemUIFont" fill-opacity="1" fill="#ffffff" transform="matrix(0.999751,0,0,0.999751,0,0)">
   <path fill-rule="evenodd" vector-effect="none" d="M-2,-2 L3510,-2 L3510,2483 L-2,2483 L-2,-2"/>
  </g>
  <g stroke-linejoin="bevel" font-weight="400" font-style="normal" stroke="#000000" font-size="54.1667" stroke-opacity="1" font-family=".AppleSystemUIFont" stroke-linecap="square" fill="none" transform="matrix(0.999751,0,0,0.999751,0,0)" stroke-width="1"/>
  <g stroke-linejoin="bevel" font-weight="400" font-style="normal" stroke="#000000" font-size="54.1667" stroke-opacity="1" font-family=".AppleSystemUIFont" stroke-linecap="square" fill="none" transform="matrix(11.8081,0,0,11.8081,0,0)" stroke-width="1"/>
  <g stroke-linejoin="bevel" font-weight="400" font-style="normal" stroke="#000000" font-size="54.1667" stroke-opacity="1" font-family=".AppleSystemUIFont" stroke-linecap="square" fill="none" transform="matrix(11.8081,0,0,11.8081,0,0)" stroke-width="1"/>
  <g stroke-linejoin="bevel" font-weight="400" font-style="normal" stroke="#000000" font-size="54.1667" stroke-opacity="1" font-family=".AppleSystemUIFont" stroke-linecap="square" fill="none" transform="matrix(1,0,0,1,0,0)" stroke-width="1"/>
 </g>
 <defs/>
 <g fill-rule="evenodd" stroke-linejoin="bevel" inkscape:label="Map 1: Background" stroke="black" inkscape:groupmode="layer" stroke-linecap="square" fill="none" stroke-width="1" id="Map 1: Background">
  <g stroke-linejoin="bevel" font-weight="400" font-style="normal" stroke="#000000" font-size="54.1667" stroke-opacity="1" font-family=".AppleSystemUIFont" stroke-linecap="square" fill="none" transform="matrix(1,0,0,1,0,0)" stroke-width="1"/>
  <g stroke-linejoin="bevel" font-weight="400" font-style="normal" stroke="#000000" font-size="54.1667" stroke-opacity="1" font-family=".AppleSystemUIFont" stroke-linecap="square" fill="none" transform="matrix(1,0,0,1,0,0)" stroke-width="1"/>
  <g stroke-linejoin="bevel" font-weight="400" font-style="normal" stroke="#000000" font-size="54.1667" stroke-opacity="1" font-family=".AppleSystemUIFont" stroke-linecap="square" fill="none" transform="matrix(11.8081,0,0,11.8081,190.458,104.565)" stroke-width="1"/>
  <g font-weight="400" font-style="normal" stroke="none" font-size="54.1667" font-family=".AppleSystemUIFont" fill-opacity="1" fill="#ffffff" transform="matrix(11.8081,0,0,11.8081,190.458,104.565)">
   <path fill-rule="evenodd" vector-effect="none" d="M0,0 L256.173,0 L256.173,162.243 L0,162.243 L0,0"/>
  </g>
  <g stroke-linejoin="bevel" font-weight="400" font-style="normal" stroke="#000000" font-size="54.1667" stroke-opacity="1" font-family=".AppleSystemUIFont" stroke-linecap="square" fill="none" transform="matrix(11.8081,0,0,11.8081,190.458,104.565)" stroke-width="1"/>
  <g stroke-linejoin="bevel" font-weight="400" font-style="normal" stroke="#000000" font-size="54.1667" stroke-opacity="1" font-family=".AppleSystemUIFont" stroke-linecap="square" fill="none" transform="matrix(11.8081,0,0,11.8081,190.458,104.565)" stroke-width="1"/>
  <g stroke-linejoin="bevel" font-weight="400" font-style="normal" stroke="#000000" font-size="54.1667" stroke-opacity="1" font-family=".AppleSystemUIFont" stroke-linecap="square" fill="none" transform="matrix(11.8081,0,0,11.8081,190.458,104.565)" stroke-width="1"/>
  <g stroke-linejoin="bevel" font-weight="400" font-style="normal" stroke="#000000" font-size="54.1667" stroke-opacity="1" font-family=".AppleSystemUIFont" stroke-linecap="square" fill="none" transform="matrix(11.8081,0,0,11.8081,190.458,104.565)" stroke-width="1"/>
  <g stroke-linejoin="bevel" font-weight="400" font-style="normal" stroke="#000000" font-size="54.1667" stroke-opacity="1" font-family=".AppleSystemUIFont" stroke-linecap="square" fill="none" transform="matrix(1,0,0,1,0,0)" stroke-width="1"/>
  <g stroke-linejoin="bevel" font-weight="400" font-style="normal" stroke="#000000" font-size="54.1667" stroke-opacity="1" font-family=".AppleSystemUIFont" stroke-linecap="square" fill="none" transform="matrix(11.8081,0,0,11.8081,190.458,104.565)" stroke-width="1"/>
  <g stroke-linejoin="bevel" font-weight="400" font-style="normal" stroke="#000000" font-size="54.1667" stroke-opacity="1" font-family=".AppleSystemUIFont" stroke-linecap="square" fill="none" transform="matrix(11.8081,0,0,11.8081,190.458,104.565)" stroke-width="1"/>
  <g stroke-linejoin="bevel" font-weight="400" font-style="normal" stroke="#000000" font-size="54.1667" stroke-opacity="1" font-family=".AppleSystemUIFont" stroke-linecap="square" fill="none" transform="matrix(1,0,0,1,0,0)" stroke-width="1"/>
 </g>
 <defs/>
 <g fill-rule="evenodd" stroke-linejoin="bevel" inkscape:label="Map 1: Dissolved" stroke="black" inkscape:groupmode="layer" stroke-linecap="square" fill="none" stroke-width="1" id="Map 1: Dissolved">
  <g stroke-linejoin="bevel" font-weight="400" font-style="normal" stroke="#000000" font-size="54.1667" stroke-opacity="1" font-family=".AppleSystemUIFont" stroke-linecap="square" fill="none" transform="matrix(1,0,0,1,0,0)" stroke-width="1"/>
  <g stroke-linejoin="bevel" font-weight="400" font-style="normal" stroke="#000000" font-size="54.1667" stroke-opacity="1" font-family=".AppleSystemUIFont" stroke-linecap="square" fill="none" transform="matrix(1,0,0,1,0,0)" stroke-width="1"/>
  <g stroke-linejoin="bevel" font-weight="400" font-style="normal" stroke="#000000" font-size="54.1667" stroke-opacity="1" font-family=".AppleSystemUIFont" stroke-linecap="square" fill="none" transform="matrix(11.8081,0,0,11.8081,190.458,104.565)" stroke-width="1"/>
  <g stroke-linejoin="bevel" font-weight="400" font-style="normal" stroke="#000000" font-size="54.1667" stroke-opacity="1" font-family=".AppleSystemUIFont" stroke-linecap="square" fill="none" transform="matrix(11.8081,0,0,11.8081,190.458,104.565)" stroke-width="1"/>
  <g font-weight="400" font-style="normal" stroke="none" font-size="54.1667" font-family=".AppleSystemUIFont" fill-opacity="0" fill="#000000" transform="matrix(0.999751,0,0,0.999751,190.458,104.565)">
   <rect width="3026" x="0" y="0" height="1916"/>
  </g>
  <g stroke-linejoin="bevel" font-weight="400" font-style="normal" stroke="#000000" font-size="54.1667" stroke-opacity="1" font-family=".AppleSystemUIFont" stroke-linecap="square" fill="none" transform="matrix(0.999751,0,0,0.999751,190.458,104.565)" stroke-width="1"/>
  <g stroke-linejoin="bevel" font-weight="400" font-style="normal" stroke="#232323" font-size="54.1667" stroke-opacity="1" font-family=".AppleSystemUIFont" fill-opacity="1" stroke-linecap="square" fill="#e5b636" transform="matrix(0.999751,0,0,0.999751,190.458,104.565)" stroke-width="3.07087">
   <path fill-rule="evenodd" vector-effect="none" d="M1160.33,1158.31 L1160.25,1107.75 L1160.23,1096.25 L1160.21,1085.18 L1160.11,1034.29 L1159.95,995.541 L1126.04,986.591 L1118.45,970.281 L1085.85,970.256 L1086.05,907.333 L1130.28,905.405 L1159.57,894.674 L1159.31,867.198 L1159.16,812.811 L1159.2,792.079 L1157.89,760.535 L1157.87,751.892 L1238.89,751.886 L1238.88,769.346 L1300.06,769.299 L1316.61,776.651 L1320.72,783.382 L1316.51,801.015 L1330.78,813.037 L1331.79,821.052 L1346.95,830.054 L1355.27,849.52 L1353.62,863.486 L1367.39,863.477 L1367.42,889.532 L1380.62,901.86 L1408.08,899.994 L1416.9,916.19 L1411.28,928.877 L1422.47,932.35 L1448.41,923.469 L1453.44,907.355 L1474.24,899.291 L1495.15,905.756 L1522.21,930.251 L1551.8,954.108 L1551.76,970.718 L1601.42,970.844 L1626.48,973.752 L1626.48,979.962 L1651.49,979.921 L1651.41,989.017 L1676.27,988.954 L1676.27,995.08 L1701.2,995.101 L1701.19,1001.14 L1726.1,1004.17 L1764.07,1001.9 L1881.41,1001.56 L1881.41,995.469 L1894,995.476 L1897.74,1001.48 L1900.81,1073.54 L1901,1146.01 L1892.2,1145.99 L1892.51,1217.03 L1896.51,1218.59 L1896.55,1254.68 L1872.21,1254.77 L1638.66,1254.45 L1578.47,1254.28 L1483.79,1254.36 L1367.31,1252.8 L1368.51,1397.65 L1360.81,1397.74 L1159.86,1397.27 L1159.68,1309.09 L1159.59,1236.35 L1159.92,1201.96 L1160.33,1158.31"/>
  </g>
  <g stroke-linejoin="bevel" font-weight="400" font-style="normal" stroke="#000000" font-size="54.1667" stroke-opacity="1" font-family=".AppleSystemUIFont" stroke-linecap="square" fill="none" transform="matrix(0.999751,0,0,0.999751,190.458,104.565)" stroke-width="1"/>
  <g stroke-linejoin="bevel" font-weight="400" font-style="normal" stroke="#000000" font-size="54.1667" stroke-opacity="1" font-family=".AppleSystemUIFont" stroke-linecap="square" fill="none" transform="matrix(11.8081,0,0,11.8081,190.458,104.565)" stroke-width="1"/>
  <g stroke-linejoin="bevel" font-weight="400" font-style="normal" stroke="#000000" font-size="54.1667" stroke-opacity="1" font-family=".AppleSystemUIFont" stroke-linecap="square" fill="none" transform="matrix(11.8081,0,0,11.8081,190.458,104.565)" stroke-width="1"/>
  <g stroke-linejoin="bevel" font-weight="400" font-style="normal" stroke="#000000" font-size="54.1667" stroke-opacity="1" font-family=".AppleSystemUIFont" stroke-linecap="square" fill="none" transform="matrix(11.8081,0,0,11.8081,190.458,104.565)" stroke-width="1"/>
  <g stroke-linejoin="bevel" font-weight="400" font-style="normal" stroke="#000000" font-size="54.1667" stroke-opacity="1" font-family=".AppleSystemUIFont" stroke-linecap="square" fill="none" transform="matrix(1,0,0,1,0,0)" stroke-width="1"/>
  <g stroke-linejoin="bevel" font-weight="400" font-style="normal" stroke="#000000" font-size="54.1667" stroke-opacity="1" font-family=".AppleSystemUIFont" stroke-linecap="square" fill="none" transform="matrix(11.8081,0,0,11.8081,190.458,104.565)" stroke-width="1"/>
  <g stroke-linejoin="bevel" font-weight="400" font-style="normal" stroke="#000000" font-size="54.1667" stroke-opacity="1" font-family=".AppleSystemUIFont" stroke-linecap="square" fill="none" transform="matrix(11.8081,0,0,11.8081,190.458,104.565)" stroke-width="1"/>
  <g stroke-linejoin="bevel" font-weight="400" font-style="normal" stroke="#000000" font-size="54.1667" stroke-opacity="1" font-family=".AppleSystemUIFont" stroke-linecap="square" fill="none" transform="matrix(1,0,0,1,0,0)" stroke-width="1"/>
 </g>
</svg>
